<?xml version="1.0" encoding="UTF-8" standalone="no"?>
<!-- Generator: Gravit.io -->
<svg xmlns="http://www.w3.org/2000/svg" xmlns:xlink="http://www.w3.org/1999/xlink" style="isolation:isolate" viewBox="0 0 1040 400" width="1040pt" height="400pt"><defs><clipPath id="_clipPath_B3nfMagTfm78PCD2XOyPNTGwAFiJ1fIf"><rect width="1040" height="400"/></clipPath></defs><g clip-path="url(#_clipPath_B3nfMagTfm78PCD2XOyPNTGwAFiJ1fIf)"><path d=" M 852.286 1.882 C 976.218 15.872 1051.823 111.661 1038.481 200.044 C 1025.139 288.591 923.147 369.568 799.214 392.445 C 674.984 415.158 529.111 379.607 386.499 377.632 C 243.887 375.657 104.834 407.422 43.164 384.545 C -18.803 361.832 -3.089 284.641 22.706 221.769 C 48.5 158.897 84.672 110.509 146.342 96.519 C 208.309 82.529 295.477 102.938 425.636 79.402 C 555.499 55.702 728.056 -12.108 852.286 1.882 Z " fill="rgb(255,111,97)"/><path d=" M 136.296 273.053 L 136.296 273.053 L 136.296 273.053 Q 138.083 279.18 134.126 286.966 L 134.126 286.966 L 134.126 286.966 Q 130.17 294.751 123.277 301.388 L 123.277 301.388 L 123.277 301.388 Q 116.385 308.025 107.834 312.62 L 107.834 312.62 L 107.834 312.62 Q 99.282 317.215 91.624 317.215 L 91.624 317.215 L 91.624 317.215 Q 80.137 317.215 74.776 312.62 L 74.776 312.62 L 74.776 312.62 Q 69.415 308.025 66.097 298.07 L 66.097 298.07 L 66.097 298.07 Q 64.565 293.22 63.034 285.179 L 63.034 285.179 L 63.034 285.179 Q 61.502 277.138 60.736 267.82 L 60.736 267.82 L 60.736 267.82 Q 59.97 258.503 60.226 248.803 L 60.226 248.803 L 60.226 248.803 Q 60.481 239.102 62.523 231.061 L 62.523 231.061 L 62.523 231.061 Q 64.565 223.02 68.394 217.532 L 68.394 217.532 L 68.394 217.532 Q 72.223 212.044 78.605 211.023 L 78.605 211.023 L 78.605 211.023 Q 85.242 210.257 90.092 211.533 L 90.092 211.533 L 90.092 211.533 Q 95.198 212.809 97.495 215.362 L 97.495 215.362 L 97.495 215.362 Q 99.793 217.915 100.558 220.212 L 100.558 220.212 L 100.558 220.212 Q 101.579 225.062 101.707 229.019 L 101.707 229.019 L 101.707 229.019 Q 101.835 232.976 101.197 237.188 L 101.197 237.188 L 101.197 237.188 Q 100.558 241.4 99.665 246.25 L 99.665 246.25 L 99.665 246.25 Q 98.772 251.1 98.006 257.992 L 98.006 257.992 L 98.006 257.992 Q 97.24 263.864 96.602 271.649 L 96.602 271.649 L 96.602 271.649 Q 95.964 279.435 96.729 287.604 L 96.729 287.604 L 96.729 287.604 Q 98.006 291.688 102.345 291.688 L 102.345 291.688 L 102.345 291.688 Q 107.706 291.688 113.705 284.923 L 113.705 284.923 L 113.705 284.923 Q 119.704 278.159 126.085 269.224 L 126.085 269.224 L 126.085 269.224 Q 126.596 268.458 127.362 267.437 L 127.362 267.437 L 127.362 267.437 Q 128.128 266.416 128.638 266.416 L 128.638 266.416 L 128.638 266.416 Q 130.936 266.672 133.233 268.586 L 133.233 268.586 L 133.233 268.586 Q 135.53 270.501 136.296 273.053 Z  M 96.985 195.706 L 93.156 195.706 L 93.156 195.706 Q 86.774 195.451 81.285 192.26 L 81.285 192.26 L 81.285 192.26 Q 75.797 189.069 72.479 180.39 L 72.479 180.39 L 72.479 180.39 Q 70.436 173.498 70.436 167.882 L 70.436 167.882 L 70.436 167.882 Q 70.436 162.266 72.223 158.054 L 72.223 158.054 L 72.223 158.054 Q 74.01 153.842 76.946 151.544 L 76.946 151.544 L 76.946 151.544 Q 79.881 149.247 83.711 149.247 L 83.711 149.247 L 83.711 149.247 Q 86.774 149.247 91.369 150.268 L 91.369 150.268 L 91.369 150.268 Q 95.964 151.289 100.558 153.076 L 100.558 153.076 L 100.558 153.076 Q 105.153 154.863 108.855 157.416 L 108.855 157.416 L 108.855 157.416 Q 112.556 159.968 113.577 163.032 L 113.577 163.032 L 113.577 163.032 Q 114.343 166.35 111.025 170.434 L 111.025 170.434 L 111.025 170.434 Q 108.472 173.498 106.94 177.837 L 106.94 177.837 L 106.94 177.837 Q 105.409 182.177 104.005 186.134 L 104.005 186.134 L 104.005 186.134 Q 102.601 190.09 101.069 192.898 L 101.069 192.898 L 101.069 192.898 Q 99.537 195.706 96.985 195.706 L 96.985 195.706 L 96.985 195.706 Z  M 256.274 274.84 L 256.274 274.84 L 256.274 274.84 Q 257.039 280.711 252.7 287.987 L 252.7 287.987 L 252.7 287.987 Q 248.36 295.262 241.213 301.771 L 241.213 301.771 L 241.213 301.771 Q 234.065 308.281 225.258 312.62 L 225.258 312.62 L 225.258 312.62 Q 216.451 316.96 208.538 316.96 L 208.538 316.96 L 208.538 316.96 Q 197.817 316.96 189.903 312.493 L 189.903 312.493 L 189.903 312.493 Q 181.99 308.025 178.926 299.601 L 178.926 299.601 L 178.926 299.601 Q 176.884 292.964 177.778 284.413 L 177.778 284.413 L 177.778 284.413 Q 178.671 275.861 180.33 267.693 L 180.33 267.693 L 180.33 267.693 Q 181.99 259.524 183.266 252.504 L 183.266 252.504 L 183.266 252.504 Q 184.542 245.484 183.521 241.91 L 183.521 241.91 L 183.521 241.91 Q 179.948 241.144 175.863 242.676 L 175.863 242.676 L 175.863 242.676 Q 168.46 245.484 164.504 253.653 L 164.504 253.653 L 164.504 253.653 Q 160.547 261.821 159.015 272.032 L 159.015 272.032 L 159.015 272.032 Q 157.484 282.243 157.739 292.581 L 157.739 292.581 L 157.739 292.581 Q 157.994 302.92 158.76 309.812 L 158.76 309.812 L 158.76 309.812 Q 159.271 313.641 156.59 315.045 L 156.59 315.045 L 156.59 315.045 Q 153.91 316.449 146.252 316.449 L 146.252 316.449 L 146.252 316.449 Q 144.21 316.449 139.104 314.407 L 139.104 314.407 L 139.104 314.407 Q 133.999 312.365 129.659 305.217 L 129.659 305.217 L 129.659 305.217 Q 128.128 302.409 126.596 298.836 L 126.596 298.836 L 126.596 298.836 Q 125.064 295.262 124.043 290.922 L 124.043 290.922 L 124.043 291.178 L 124.043 291.178 Q 122.001 282.498 121.235 272.543 L 121.235 272.543 L 121.235 272.543 Q 120.47 262.587 120.725 252.887 L 120.725 252.887 L 120.725 252.887 Q 120.98 243.187 122.256 234.252 L 122.256 234.252 L 122.256 234.252 Q 123.533 225.318 125.703 218.553 L 125.703 218.553 L 125.703 218.553 Q 127.872 211.788 130.808 207.704 L 130.808 207.704 L 130.808 207.704 Q 133.744 203.62 137.573 203.62 L 137.573 203.62 L 137.573 203.62 Q 140.636 203.62 144.593 204.13 L 144.593 204.13 L 144.593 204.13 Q 148.549 204.641 151.995 205.789 L 151.995 205.789 L 151.995 205.789 Q 155.442 206.938 158.122 208.725 L 158.122 208.725 L 158.122 208.725 Q 160.802 210.512 161.568 212.809 L 161.568 212.809 L 161.568 212.809 Q 161.823 213.83 161.313 216.128 L 161.313 216.128 L 161.313 216.128 Q 160.802 218.425 160.036 221.361 L 160.036 221.361 L 160.036 221.361 Q 159.271 224.297 158.505 227.615 L 158.505 227.615 L 158.505 227.615 Q 157.739 230.934 157.739 233.997 L 157.739 233.997 L 157.739 233.997 Q 160.802 229.147 164.887 224.68 L 164.887 224.68 L 164.887 224.68 Q 168.971 220.212 173.566 216.894 L 173.566 216.894 L 173.566 216.894 Q 178.161 213.575 183.011 211.533 L 183.011 211.533 L 183.011 211.533 Q 187.861 209.491 192.456 209.491 L 192.456 209.491 L 192.456 209.491 Q 196.285 209.491 200.369 210.512 L 200.369 210.512 L 200.369 210.512 Q 204.454 211.533 208.283 213.448 L 208.283 213.448 L 208.283 213.448 Q 212.112 215.362 215.047 218.17 L 215.047 218.17 L 215.047 218.17 Q 217.983 220.978 219.259 224.807 L 219.259 224.807 L 219.259 224.807 Q 221.046 230.934 219.642 239.613 L 219.642 239.613 L 219.642 239.613 Q 218.238 248.292 215.941 257.482 L 215.941 257.482 L 215.941 257.482 Q 213.643 266.672 212.112 275.223 L 212.112 275.223 L 212.112 275.223 Q 210.58 283.775 212.367 289.391 L 212.367 289.391 L 212.367 289.391 Q 213.643 293.73 218.238 293.73 L 218.238 293.73 L 218.238 293.73 Q 223.088 293.73 229.342 288.752 L 229.342 288.752 L 229.342 288.752 Q 235.597 283.775 240.191 275.606 L 240.191 275.606 L 244.786 267.437 L 244.786 267.437 Q 245.042 267.182 245.68 266.416 L 245.68 266.416 L 245.68 266.416 Q 246.318 265.65 247.339 265.65 L 247.339 265.65 L 247.339 265.65 Q 250.658 265.65 253.083 268.841 L 253.083 268.841 L 253.083 268.841 Q 255.508 272.032 256.274 274.84 Z  M 274.908 281.732 L 274.908 281.732 L 274.908 281.732 Q 276.695 286.072 281.418 289.901 L 281.418 289.901 L 281.418 289.901 Q 286.14 293.73 290.48 293.73 L 290.48 293.73 L 290.48 293.73 Q 297.372 293.73 301.839 286.327 L 301.839 286.327 L 301.839 286.327 Q 306.307 278.925 307.966 266.544 L 307.966 266.544 L 307.966 266.544 Q 309.625 254.163 308.349 238.336 L 308.349 238.336 L 308.349 238.336 Q 307.072 222.51 302.477 205.662 L 302.477 205.662 L 302.477 205.662 Q 299.414 194.94 295.33 187.155 L 295.33 187.155 L 295.33 187.155 Q 291.246 179.369 287.417 173.242 L 287.417 173.242 L 287.417 173.242 Q 283.587 167.116 280.397 162.011 L 280.397 162.011 L 280.397 162.011 Q 277.206 156.905 275.929 151.544 L 275.929 151.544 L 275.929 151.544 Q 274.398 146.95 276.057 144.014 L 276.057 144.014 L 276.057 144.014 Q 277.716 141.078 280.779 139.419 L 280.779 139.419 L 280.779 139.419 Q 283.843 137.76 287.799 137.122 L 287.799 137.122 L 287.799 137.122 Q 291.756 136.483 295.33 136.228 L 295.33 136.228 L 295.33 136.228 Q 300.18 136.228 305.668 140.44 L 305.668 140.44 L 305.668 140.44 Q 311.157 144.652 316.262 151.927 L 316.262 151.927 L 316.262 151.927 Q 321.368 159.203 325.962 168.903 L 325.962 168.903 L 325.962 168.903 Q 330.557 178.603 333.876 189.58 L 333.876 189.58 L 333.876 189.58 Q 337.194 201.833 339.875 215.745 L 339.875 215.745 L 339.875 215.745 Q 342.555 229.657 343.066 243.314 L 343.066 243.314 L 343.066 243.314 Q 343.576 256.971 341.534 269.607 L 341.534 269.607 L 341.534 269.607 Q 339.492 282.243 333.748 292.326 L 333.748 292.326 L 333.748 292.326 Q 328.005 302.409 318.049 309.046 L 318.049 309.046 L 318.049 309.046 Q 308.093 315.683 292.777 316.96 L 292.777 316.96 L 292.777 316.96 Q 289.203 317.47 285.502 317.343 L 285.502 317.343 L 285.502 317.343 Q 281.801 317.215 278.227 316.705 L 278.227 316.705 L 278.227 316.705 Q 266.74 314.662 257.677 307.26 L 257.677 307.26 L 257.677 307.26 Q 248.615 299.857 244.531 288.114 L 244.531 288.114 L 244.531 288.114 Q 237.894 267.948 239.043 252.887 L 239.043 252.887 L 239.043 252.887 Q 240.191 237.826 246.573 227.87 L 246.573 227.87 L 246.573 227.87 Q 252.955 217.915 263.293 212.937 L 263.293 212.937 L 263.293 212.937 Q 273.632 207.959 285.63 207.959 L 285.63 207.959 L 285.63 207.959 Q 289.714 207.959 292.777 209.619 L 292.777 209.619 L 292.777 209.619 Q 295.84 211.278 297.117 214.596 L 297.117 214.596 L 297.117 214.596 Q 298.904 220.212 294.819 221.489 L 294.819 221.489 L 294.819 221.489 Q 288.182 223.531 282.822 228.764 L 282.822 228.764 L 282.822 228.764 Q 277.461 233.997 274.398 241.91 L 274.398 241.91 L 274.398 241.91 Q 271.334 249.824 271.207 260.034 L 271.207 260.034 L 271.207 260.034 Q 271.079 270.245 274.908 281.732 Z  M 492.399 270.756 L 492.399 270.756 L 492.399 270.756 Q 493.93 276.372 490.229 284.158 L 490.229 284.158 L 490.229 284.158 Q 486.528 291.943 480.018 299.219 L 480.018 299.219 L 480.018 299.219 Q 473.509 306.494 465.213 311.599 L 465.213 311.599 L 465.213 311.599 Q 456.916 316.705 449.513 316.705 L 449.513 316.705 L 449.513 316.705 Q 439.558 316.705 432.666 312.876 L 432.666 312.876 L 432.666 312.876 Q 425.773 309.046 421.944 298.58 L 421.944 298.58 L 421.944 298.58 Q 417.349 308.281 409.564 312.876 L 409.564 312.876 L 409.564 312.876 Q 401.778 317.47 394.375 317.981 L 394.375 317.981 L 394.375 317.981 Q 381.867 317.981 371.783 311.216 L 371.783 311.216 L 371.783 311.216 Q 361.7 304.452 356.85 289.901 L 356.85 289.901 L 356.85 289.901 Q 353.787 280.967 354.297 271.649 L 354.297 271.649 L 354.297 271.649 Q 354.808 262.332 357.871 253.397 L 357.871 253.397 L 357.871 253.397 Q 360.934 244.463 366.295 236.55 L 366.295 236.55 L 366.295 236.55 Q 371.656 228.636 378.293 222.637 L 378.293 222.637 L 378.293 222.637 Q 384.93 216.638 392.46 213.192 L 392.46 213.192 L 392.46 213.192 Q 399.991 209.746 407.649 209.746 L 407.649 209.746 L 407.649 209.746 Q 410.457 209.746 413.137 210.384 L 413.137 210.384 L 413.137 210.384 Q 415.818 211.023 417.86 211.788 L 417.86 211.788 L 418.881 204.896 L 418.881 204.896 Q 419.136 203.364 421.178 202.343 L 421.178 202.343 L 421.178 202.343 Q 423.221 201.322 425.263 201.322 L 425.263 201.322 L 425.263 201.322 Q 428.581 201.322 432.793 202.343 L 432.793 202.343 L 432.793 202.343 Q 437.005 203.364 440.962 205.151 L 440.962 205.151 L 440.962 205.151 Q 444.919 206.938 448.237 209.491 L 448.237 209.491 L 448.237 209.491 Q 451.556 212.044 453.087 215.107 L 453.087 215.107 L 453.087 215.107 Q 453.598 218.425 453.087 231.955 L 453.087 231.955 L 453.087 231.955 Q 452.577 245.484 450.534 272.543 L 450.534 272.543 L 450.534 272.543 Q 450.024 276.372 450.024 280.201 L 450.024 280.201 L 450.024 280.201 Q 450.024 284.03 450.024 288.114 L 450.024 288.114 L 450.024 288.114 Q 451.045 292.454 456.406 292.454 L 456.406 292.454 L 456.406 292.454 Q 462.022 292.454 467.127 287.093 L 467.127 287.093 L 467.127 287.093 Q 472.232 281.732 477.593 273.564 L 477.593 273.564 L 482.188 265.906 L 482.188 265.906 Q 483.975 263.864 486.272 263.864 L 486.272 263.864 L 486.272 263.864 Q 488.315 263.864 490.101 266.289 L 490.101 266.289 L 490.101 266.289 Q 491.888 268.714 492.399 270.756 Z  M 402.799 290.156 L 402.799 290.156 L 402.799 290.156 Q 408.16 289.901 410.968 287.987 L 410.968 287.987 L 410.968 287.987 Q 413.775 286.072 415.052 282.881 L 415.052 282.881 L 415.052 282.881 Q 416.328 279.69 416.839 275.478 L 416.839 275.478 L 416.839 275.478 Q 417.349 271.266 417.86 266.672 L 417.86 266.672 L 417.86 266.672 Q 418.115 256.716 418.626 247.143 L 418.626 247.143 L 418.626 247.143 Q 419.136 237.571 419.391 227.87 L 419.391 227.87 L 419.391 227.87 Q 417.605 226.083 413.265 226.594 L 413.265 226.594 L 413.265 226.594 Q 406.628 228.126 401.778 234.507 L 401.778 234.507 L 401.778 234.507 Q 396.928 240.889 394.12 249.313 L 394.12 249.313 L 394.12 249.313 Q 391.312 257.737 390.674 266.416 L 390.674 266.416 L 390.674 266.416 Q 390.035 275.095 392.077 281.222 L 392.077 281.222 L 392.077 281.222 Q 393.609 286.327 396.289 288.242 L 396.289 288.242 L 396.289 288.242 Q 398.97 290.156 402.799 290.156 Z  M 548.303 207.193 L 548.303 207.193 L 548.303 207.193 Q 549.324 210.767 548.431 213.958 L 548.431 213.958 L 548.431 213.958 Q 547.537 217.149 545.24 219.574 L 545.24 219.574 L 545.24 219.574 Q 542.942 221.999 539.879 223.658 L 539.879 223.658 L 539.879 223.658 Q 536.816 225.318 533.753 225.573 L 533.753 225.573 L 533.753 225.573 Q 530.179 226.083 526.733 225.573 L 526.733 225.573 L 526.733 225.573 Q 523.287 225.062 519.202 224.552 L 519.202 224.552 L 519.202 224.552 Q 516.394 240.634 515.246 256.205 L 515.246 256.205 L 515.246 256.205 Q 514.097 271.777 515.118 282.243 L 515.118 282.243 L 515.118 282.243 Q 515.373 283.519 515.501 284.796 L 515.501 284.796 L 515.501 284.796 Q 515.628 286.072 516.139 287.093 L 516.139 287.093 L 516.139 287.093 Q 516.905 290.156 519.458 291.943 L 519.458 291.943 L 519.458 291.943 Q 522.01 293.73 525.584 293.73 L 525.584 293.73 L 525.584 293.73 Q 534.519 293.73 544.474 280.967 L 544.474 280.967 L 544.474 280.967 Q 545.495 279.69 546.772 277.393 L 546.772 277.393 L 546.772 277.393 Q 548.048 275.095 549.324 272.926 L 549.324 272.926 L 549.324 272.926 Q 550.601 270.756 551.749 269.097 L 551.749 269.097 L 551.749 269.097 Q 552.898 267.437 553.664 267.437 L 553.664 267.437 L 553.664 267.437 Q 555.451 267.693 557.876 269.224 L 557.876 269.224 L 557.876 269.224 Q 560.301 270.756 561.067 273.309 L 561.067 273.309 L 561.067 273.309 Q 563.364 280.201 559.918 287.987 L 559.918 287.987 L 559.918 287.987 Q 556.472 295.772 549.324 302.282 L 549.324 302.282 L 549.324 302.282 Q 542.177 308.791 532.859 313.131 L 532.859 313.131 L 532.859 313.131 Q 523.542 317.47 514.097 317.47 L 514.097 317.47 L 514.097 317.47 Q 505.418 317.47 497.76 312.237 L 497.76 312.237 L 497.76 312.237 Q 490.101 307.004 486.017 298.836 L 486.017 298.836 L 486.017 298.836 Q 484.741 296.028 483.592 292.837 L 483.592 292.837 L 483.592 292.837 Q 482.443 289.646 481.933 286.072 L 481.933 286.072 L 481.933 286.072 Q 481.167 280.711 480.784 273.436 L 480.784 273.436 L 480.784 273.436 Q 480.401 266.161 480.274 257.737 L 480.274 257.737 L 480.274 257.737 Q 480.146 249.313 480.146 240.123 L 480.146 240.123 L 480.146 240.123 Q 480.146 230.934 480.656 221.744 L 480.656 221.744 L 480.656 221.744 Q 474.785 220.212 470.446 217.404 L 470.446 217.404 L 470.446 217.404 Q 466.106 214.596 464.83 210.767 L 464.83 210.767 L 464.83 210.767 Q 462.022 203.62 466.361 201.45 L 466.361 201.45 L 466.361 201.45 Q 470.701 199.28 479.38 198.77 L 479.38 198.77 L 479.38 198.77 Q 480.401 198.77 481.039 198.642 L 481.039 198.642 L 481.039 198.642 Q 481.677 198.514 482.954 198.514 L 482.954 198.514 L 482.954 198.514 Q 483.975 191.367 485.762 183.964 L 485.762 183.964 L 485.762 183.964 Q 487.549 176.561 490.229 170.434 L 490.229 170.434 L 490.229 170.434 Q 492.909 164.308 496.483 159.968 L 496.483 159.968 L 496.483 159.968 Q 500.057 155.629 504.652 154.863 L 504.652 154.863 L 504.652 154.863 Q 510.013 154.608 515.628 156.395 L 515.628 156.395 L 515.628 156.395 Q 522.266 158.437 527.881 162.776 L 527.881 162.776 L 527.881 162.776 Q 533.497 167.116 535.284 172.221 L 535.284 172.221 L 535.284 172.221 Q 535.795 175.285 534.901 177.965 L 534.901 177.965 L 534.901 177.965 Q 534.008 180.645 532.349 183.581 L 532.349 183.581 L 532.349 183.581 Q 530.689 186.517 528.647 189.963 L 528.647 189.963 L 528.647 189.963 Q 526.605 193.409 525.074 198.259 L 525.074 198.259 L 539.879 198.259 L 539.879 198.259 Q 542.687 198.77 545.112 201.705 L 545.112 201.705 L 545.112 201.705 Q 547.537 204.641 548.303 207.193 Z  M 686.66 270.756 L 686.66 270.756 L 686.66 270.756 Q 688.191 276.372 684.49 284.158 L 684.49 284.158 L 684.49 284.158 Q 680.789 291.943 674.279 299.219 L 674.279 299.219 L 674.279 299.219 Q 667.77 306.494 659.474 311.599 L 659.474 311.599 L 659.474 311.599 Q 651.177 316.705 643.774 316.705 L 643.774 316.705 L 643.774 316.705 Q 633.819 316.705 626.926 312.876 L 626.926 312.876 L 626.926 312.876 Q 620.034 309.046 616.205 298.58 L 616.205 298.58 L 616.205 298.58 Q 611.61 308.281 603.825 312.876 L 603.825 312.876 L 603.825 312.876 Q 596.039 317.47 588.636 317.981 L 588.636 317.981 L 588.636 317.981 Q 576.128 317.981 566.044 311.216 L 566.044 311.216 L 566.044 311.216 Q 555.961 304.452 551.111 289.901 L 551.111 289.901 L 551.111 289.901 Q 548.048 280.967 548.558 271.649 L 548.558 271.649 L 548.558 271.649 Q 549.069 262.332 552.132 253.397 L 552.132 253.397 L 552.132 253.397 Q 555.195 244.463 560.556 236.55 L 560.556 236.55 L 560.556 236.55 Q 565.917 228.636 572.554 222.637 L 572.554 222.637 L 572.554 222.637 Q 579.191 216.638 586.721 213.192 L 586.721 213.192 L 586.721 213.192 Q 594.252 209.746 601.91 209.746 L 601.91 209.746 L 601.91 209.746 Q 604.718 209.746 607.398 210.384 L 607.398 210.384 L 607.398 210.384 Q 610.079 211.023 612.121 211.788 L 612.121 211.788 L 613.142 204.896 L 613.142 204.896 Q 613.397 203.364 615.439 202.343 L 615.439 202.343 L 615.439 202.343 Q 617.481 201.322 619.524 201.322 L 619.524 201.322 L 619.524 201.322 Q 622.842 201.322 627.054 202.343 L 627.054 202.343 L 627.054 202.343 Q 631.266 203.364 635.223 205.151 L 635.223 205.151 L 635.223 205.151 Q 639.179 206.938 642.498 209.491 L 642.498 209.491 L 642.498 209.491 Q 645.817 212.044 647.348 215.107 L 647.348 215.107 L 647.348 215.107 Q 647.859 218.425 647.348 231.955 L 647.348 231.955 L 647.348 231.955 Q 646.838 245.484 644.795 272.543 L 644.795 272.543 L 644.795 272.543 Q 644.285 276.372 644.285 280.201 L 644.285 280.201 L 644.285 280.201 Q 644.285 284.03 644.285 288.114 L 644.285 288.114 L 644.285 288.114 Q 645.306 292.454 650.667 292.454 L 650.667 292.454 L 650.667 292.454 Q 656.283 292.454 661.388 287.093 L 661.388 287.093 L 661.388 287.093 Q 666.493 281.732 671.854 273.564 L 671.854 273.564 L 676.449 265.906 L 676.449 265.906 Q 678.236 263.864 680.533 263.864 L 680.533 263.864 L 680.533 263.864 Q 682.575 263.864 684.362 266.289 L 684.362 266.289 L 684.362 266.289 Q 686.149 268.714 686.66 270.756 Z  M 597.06 290.156 L 597.06 290.156 L 597.06 290.156 Q 602.421 289.901 605.228 287.987 L 605.228 287.987 L 605.228 287.987 Q 608.036 286.072 609.313 282.881 L 609.313 282.881 L 609.313 282.881 Q 610.589 279.69 611.1 275.478 L 611.1 275.478 L 611.1 275.478 Q 611.61 271.266 612.121 266.672 L 612.121 266.672 L 612.121 266.672 Q 612.376 256.716 612.887 247.143 L 612.887 247.143 L 612.887 247.143 Q 613.397 237.571 613.652 227.87 L 613.652 227.87 L 613.652 227.87 Q 611.866 226.083 607.526 226.594 L 607.526 226.594 L 607.526 226.594 Q 600.889 228.126 596.039 234.507 L 596.039 234.507 L 596.039 234.507 Q 591.189 240.889 588.381 249.313 L 588.381 249.313 L 588.381 249.313 Q 585.573 257.737 584.934 266.416 L 584.934 266.416 L 584.934 266.416 Q 584.296 275.095 586.338 281.222 L 586.338 281.222 L 586.338 281.222 Q 587.87 286.327 590.55 288.242 L 590.55 288.242 L 590.55 288.242 Q 593.231 290.156 597.06 290.156 Z  M 742.564 217.149 L 742.564 217.149 L 742.564 217.149 Q 748.691 217.149 753.285 220.468 L 753.285 220.468 L 753.285 220.468 Q 757.88 223.786 760.561 228.764 L 760.561 228.764 L 760.561 228.764 Q 763.241 233.742 764.134 239.613 L 764.134 239.613 L 764.134 239.613 Q 765.028 245.484 764.262 250.589 L 764.262 250.589 L 764.262 250.589 Q 769.878 253.397 774.345 254.801 L 774.345 254.801 L 774.345 254.801 Q 778.813 256.205 782.514 256.716 L 782.514 256.716 L 782.514 256.716 Q 786.215 257.227 788.896 257.354 L 788.896 257.354 L 788.896 257.354 Q 791.576 257.482 793.618 257.737 L 793.618 257.737 L 793.618 257.737 Q 797.192 256.971 798.341 260.034 L 798.341 260.034 L 798.341 260.034 Q 799.489 263.098 800 266.927 L 800 266.927 L 800 266.927 Q 800.255 272.032 797.192 274.074 L 797.192 274.074 L 797.192 274.074 Q 794.129 276.117 790.3 276.627 L 790.3 276.627 L 790.3 276.627 Q 787.236 276.882 783.407 275.989 L 783.407 275.989 L 783.407 275.989 Q 779.578 275.095 775.494 273.691 L 775.494 273.691 L 775.494 273.691 Q 771.41 272.287 767.708 270.501 L 767.708 270.501 L 767.708 270.501 Q 764.007 268.714 761.454 266.927 L 761.454 266.927 L 761.454 266.927 Q 759.923 272.798 756.732 281.605 L 756.732 281.605 L 756.732 281.605 Q 753.541 290.412 747.414 298.453 L 747.414 298.453 L 747.414 298.453 Q 741.288 306.494 732.098 312.237 L 732.098 312.237 L 732.098 312.237 Q 722.908 317.981 709.634 317.981 L 709.634 317.981 L 709.634 317.981 Q 695.339 317.981 686.66 309.812 L 686.66 309.812 L 686.66 309.812 Q 677.981 301.644 675.938 285.817 L 675.938 285.817 L 675.938 285.817 Q 674.662 277.393 673.258 264.119 L 673.258 264.119 L 673.258 264.119 Q 671.854 250.845 671.344 235.784 L 671.344 235.784 L 671.344 235.784 Q 670.833 220.723 671.471 205.279 L 671.471 205.279 L 671.471 205.279 Q 672.109 189.835 674.79 176.689 L 674.79 176.689 L 674.79 176.689 Q 677.47 163.542 682.575 154.352 L 682.575 154.352 L 682.575 154.352 Q 687.681 145.163 696.105 142.61 L 696.105 142.61 L 696.105 142.61 Q 699.679 142.099 704.018 142.738 L 704.018 142.738 L 704.018 142.738 Q 708.358 143.376 712.442 145.163 L 712.442 145.163 L 712.442 145.163 Q 718.313 146.439 722.908 150.268 L 722.908 150.268 L 722.908 150.268 Q 727.503 154.097 729.035 158.437 L 729.035 158.437 L 729.035 158.437 Q 730.822 163.542 727.248 167.627 L 727.248 167.627 L 727.248 167.627 Q 723.419 172.987 719.973 181.794 L 719.973 181.794 L 719.973 181.794 Q 716.526 190.601 713.846 201.578 L 713.846 201.578 L 713.846 201.578 Q 711.166 212.554 709.379 224.68 L 709.379 224.68 L 709.379 224.68 Q 707.592 236.805 706.954 248.547 L 706.954 248.547 L 706.954 248.547 Q 706.316 260.29 707.081 270.883 L 707.081 270.883 L 707.081 270.883 Q 707.847 281.477 710.145 289.391 L 710.145 289.391 L 710.145 289.391 Q 711.166 291.433 713.336 292.837 L 713.336 292.837 L 713.336 292.837 Q 715.505 294.241 718.313 294.241 L 718.313 294.241 L 718.313 294.241 Q 723.674 294.241 728.397 290.667 L 728.397 290.667 L 728.397 290.667 Q 733.119 287.093 736.438 281.477 L 736.438 281.477 L 736.438 281.477 Q 739.756 275.861 741.16 268.841 L 741.16 268.841 L 741.16 268.841 Q 742.564 261.821 741.288 255.184 L 741.288 255.184 L 741.288 255.184 Q 734.395 249.568 728.652 242.931 L 728.652 242.931 L 728.652 242.931 Q 722.908 236.294 721.504 230.551 L 721.504 230.551 L 721.504 230.551 Q 720.1 224.807 724.568 220.978 L 724.568 220.978 L 724.568 220.978 Q 729.035 217.149 742.564 217.149 Z  M 868.157 273.053 L 868.157 273.053 L 868.157 273.053 Q 869.434 279.946 865.605 287.859 L 865.605 287.859 L 865.605 287.859 Q 861.775 295.772 854.756 302.282 L 854.756 302.282 L 854.756 302.282 Q 847.736 308.791 838.674 313.131 L 838.674 313.131 L 838.674 313.131 Q 829.611 317.47 820.422 317.47 L 820.422 317.47 L 820.422 317.47 Q 811.742 317.47 804.212 312.62 L 804.212 312.62 L 804.212 312.62 Q 796.681 307.77 793.363 296.793 L 793.363 296.793 L 793.363 296.793 Q 791.831 291.688 790.044 278.797 L 790.044 278.797 L 790.044 278.797 Q 788.258 265.906 787.492 249.441 L 787.492 249.441 L 787.492 249.441 Q 786.726 232.976 787.109 214.979 L 787.109 214.979 L 787.109 214.979 Q 787.492 196.983 790.044 181.666 L 790.044 181.666 L 790.044 181.666 Q 792.597 166.35 797.703 155.756 L 797.703 155.756 L 797.703 155.756 Q 802.808 145.163 811.232 143.631 L 811.232 143.631 L 811.232 143.631 Q 814.55 143.376 819.018 144.652 L 819.018 144.652 L 819.018 144.652 Q 823.485 145.929 827.314 147.971 L 827.314 147.971 L 827.314 147.971 Q 832.164 150.013 836.504 153.842 L 836.504 153.842 L 836.504 153.842 Q 840.843 157.671 842.375 162.011 L 842.375 162.011 L 842.375 162.011 Q 843.141 164.308 842.758 166.861 L 842.758 166.861 L 842.758 166.861 Q 842.375 169.413 840.333 171.711 L 840.333 171.711 L 840.333 171.711 Q 837.014 176.561 834.079 185.623 L 834.079 185.623 L 834.079 185.623 Q 831.143 194.685 828.718 205.917 L 828.718 205.917 L 828.718 205.917 Q 826.293 217.149 824.634 229.274 L 824.634 229.274 L 824.634 229.274 Q 822.974 241.4 822.209 252.504 L 822.209 252.504 L 822.209 252.504 Q 821.443 263.608 821.826 272.67 L 821.826 272.67 L 821.826 272.67 Q 822.209 281.732 823.74 286.583 L 823.74 286.583 L 823.74 286.583 Q 825.017 289.901 826.931 291.688 L 826.931 291.688 L 826.931 291.688 Q 828.846 293.475 832.419 293.475 L 832.419 293.475 L 832.419 293.475 Q 836.504 293.475 840.843 290.029 L 840.843 290.029 L 840.843 290.029 Q 845.183 286.583 849.012 281.988 L 849.012 281.988 L 849.012 281.988 Q 852.841 277.393 856.032 272.926 L 856.032 272.926 L 856.032 272.926 Q 859.223 268.458 861.01 266.416 L 861.01 266.416 L 861.01 266.416 Q 863.307 265.906 865.477 268.331 L 865.477 268.331 L 865.477 268.331 Q 867.647 270.756 868.157 273.053 Z  M 960.821 263.098 L 960.821 263.098 L 960.821 263.098 Q 961.586 261.821 963.373 261.821 L 963.373 261.821 L 963.373 261.821 Q 967.713 261.821 969.883 264.374 L 969.883 264.374 L 969.883 264.374 Q 972.052 266.927 972.052 270.501 L 972.052 270.501 L 972.052 270.501 Q 972.052 278.669 967.458 286.838 L 967.458 286.838 L 967.458 286.838 Q 962.863 295.007 954.694 301.771 L 954.694 301.771 L 954.694 301.771 Q 946.525 308.536 935.549 312.748 L 935.549 312.748 L 935.549 312.748 Q 924.572 316.96 911.809 316.96 L 911.809 316.96 L 911.809 316.96 Q 902.619 316.96 894.195 314.535 L 894.195 314.535 L 894.195 314.535 Q 885.771 312.11 878.879 307.515 L 878.879 307.515 L 878.879 307.515 Q 871.986 302.92 866.753 296.538 L 866.753 296.538 L 866.753 296.538 Q 861.52 290.156 858.712 281.988 L 858.712 281.988 L 858.712 281.988 Q 854.373 270.245 853.99 257.482 L 853.99 257.482 L 853.99 257.482 Q 853.607 244.718 857.436 234.507 L 857.436 234.507 L 857.436 234.507 Q 859.478 229.147 863.435 224.297 L 863.435 224.297 L 863.435 224.297 Q 867.391 219.446 873.263 215.745 L 873.263 215.745 L 873.263 215.745 Q 879.134 212.044 887.047 209.874 L 887.047 209.874 L 887.047 209.874 Q 894.961 207.704 905.172 207.704 L 905.172 207.704 L 905.172 207.704 Q 919.722 207.704 928.529 213.703 L 928.529 213.703 L 928.529 213.703 Q 937.336 219.702 940.909 229.657 L 940.909 229.657 L 940.909 229.657 Q 943.973 238.847 941.292 246.888 L 941.292 246.888 L 941.292 246.888 Q 938.612 254.929 931.847 260.928 L 931.847 260.928 L 931.847 260.928 Q 925.083 266.927 915.127 270.501 L 915.127 270.501 L 915.127 270.501 Q 905.172 274.074 893.429 274.074 L 893.429 274.074 L 893.429 274.074 Q 895.726 282.754 900.96 288.242 L 900.96 288.242 L 900.96 288.242 Q 906.193 293.73 917.169 294.496 L 917.169 294.496 L 917.169 294.496 Q 932.23 293.985 943.079 285.051 L 943.079 285.051 L 943.079 285.051 Q 953.928 276.117 960.821 263.098 Z  M 889.6 258.758 L 889.6 258.758 L 889.6 258.758 Q 895.726 259.524 900.704 257.354 L 900.704 257.354 L 900.704 257.354 Q 905.682 255.184 909.001 251.355 L 909.001 251.355 L 909.001 251.355 Q 912.319 247.526 913.595 242.548 L 913.595 242.548 L 913.595 242.548 Q 914.872 237.571 913.34 232.976 L 913.34 232.976 L 913.34 232.976 Q 912.064 229.913 910.149 227.87 L 910.149 227.87 L 910.149 227.87 Q 908.235 225.828 904.661 225.828 L 904.661 225.828 L 904.661 225.828 Q 901.087 225.828 898.024 228.381 L 898.024 228.381 L 898.024 228.381 Q 894.961 230.934 892.919 235.401 L 892.919 235.401 L 892.919 235.401 Q 890.876 239.868 889.855 245.867 L 889.855 245.867 L 889.855 245.867 Q 888.834 251.866 889.6 258.758 Z " fill="rgb(255,255,255)"/></g></svg>